<svg id="b_logo" width="312" height="141" viewBox="0 0 312 141" version="1.1" xmlns="http://www.w3.org/2000/svg" xmlns:xlink="http://www.w3.org/1999/xlink" xml:space="preserve" xmlns:serif="http://www.serif.com/" style="fill-rule:evenodd;clip-rule:evenodd;stroke-linejoin:round;stroke-miterlimit:2;">
    <path id="b_logo__name" d="M219.148,130.16L219.148,130.155C219.148,130.15 219.148,130.16 219.148,130.16L219.148,130.16C219.149,133.427 220.436,136.11 222.962,137.822C225.373,139.452 228.892,140.282 233.413,140.282C242.686,140.282 248.008,136.649 248.008,130.312L248.008,91.9L243.099,91.9L243.089,93.107C243.089,93.411 242.726,93.662 242.49,93.465C241.916,92.989 238.946,91.065 232.515,91.065C223.939,91.065 218.824,94.717 218.824,100.839L218.824,117.661C218.824,123.783 223.944,127.435 232.515,127.435C235.863,127.435 238.627,126.979 240.86,126.046C241.557,125.756 242.323,126.247 242.323,126.998L242.323,130.179C242.323,131.509 242.323,136.679 234.056,136.865L233.413,136.865C224.828,136.865 222.884,133.728 222.884,130.16L219.148,130.16ZM120.013,116.842C120.013,119.537 119.036,124.023 110.588,124.023C105.232,124.023 102.513,120.445 102.513,116.876L102.513,91.909L96.833,91.909L96.833,117.676C96.833,123.793 101.904,127.45 110.396,127.45C114.795,127.45 117.573,126.444 119.438,124.77C119.708,124.524 120.14,124.711 120.14,125.079L120.14,126.615L125.692,126.615L125.692,91.914L120.013,91.914L120.013,116.852L120.013,116.842ZM15.488,91.085C12.027,91.085 9.14,91.6 6.858,92.621C6.303,92.872 5.68,92.474 5.68,91.865L5.68,79.073L0,79.073L0,126.615L5.552,126.615L5.552,124.932C5.552,124.563 5.994,124.377 6.259,124.632C8.492,126.802 11.487,127.45 15.492,127.45C24.068,127.45 29.183,123.798 29.183,117.676L29.183,100.853C29.183,94.732 24.063,91.08 15.492,91.08L15.488,91.085ZM75.062,91.021C62.201,91.021 60.281,97.594 60.281,101.32L60.281,117.426C60.281,121.147 62.201,127.396 75.062,127.396C84.345,127.396 89.637,124.347 89.637,117.421L85.921,117.421C85.921,119.149 85.739,123.989 75.082,123.989C67.895,123.989 65.966,121.564 65.966,117.421L65.966,111.658C65.966,110.74 66.712,109.994 67.63,109.994L89.853,109.994L89.853,101.32C89.853,97.599 87.933,91.021 75.067,91.021L75.062,91.021ZM270.24,91.021C257.379,91.021 255.459,97.594 255.459,101.32L255.459,117.426C255.459,121.147 257.379,127.396 270.24,127.396C279.523,127.396 284.815,124.347 284.815,117.421L281.098,117.421C281.098,119.149 280.917,123.989 270.26,123.989C263.073,123.989 261.144,121.564 261.144,117.421L261.144,111.658C261.144,110.74 261.89,109.994 262.808,109.994L285.03,109.994L285.03,101.32C285.03,97.599 283.111,91.021 270.245,91.021L270.24,91.021ZM175.012,91.929L169.269,91.929L169.269,126.63L175.012,126.63L175.012,91.929ZM42.712,94.271C42.163,94.624 41.441,94.217 41.441,93.564L41.441,91.919L36.022,91.919L36.022,126.62L41.701,126.62L41.701,100.623C41.701,99.823 41.976,99.047 42.511,98.448C43.856,96.936 47.273,94.796 55.539,96.136L55.539,91.345C54.661,91.276 54.219,91.276 53.502,91.276C48.598,91.276 45.034,92.788 42.717,94.271L42.712,94.271ZM197.907,91.075C193.396,91.075 190.696,91.772 188.664,93.564C188.394,93.804 187.967,93.613 187.967,93.25L187.967,91.909L182.42,91.909L182.42,126.61L188.099,126.61L188.099,101.29C188.099,98.595 189.096,94.447 197.716,94.447C201.461,94.447 205.919,96.808 205.919,101.256L205.919,126.61L211.598,126.61L211.598,100.848C211.598,94.727 206.483,91.075 197.907,91.075ZM309.958,91.266C305.054,91.266 301.49,92.778 299.173,94.261C298.623,94.614 297.902,94.207 297.902,93.554L297.902,91.909L292.482,91.909L292.482,126.61L298.162,126.61L298.162,100.613C298.162,99.813 298.437,99.037 298.972,98.438C300.317,96.926 303.733,94.786 312,96.126L312,91.335C311.121,91.266 310.68,91.266 309.963,91.266L309.958,91.266ZM148.167,91.07L148.17,91.07L148.165,91.07L148.167,91.07C143.658,91.07 140.959,91.767 138.927,93.559C138.657,93.799 138.23,93.608 138.23,93.245L138.23,91.904L132.678,91.904L132.678,126.605L138.357,126.605L138.357,101.285C138.357,98.59 139.354,94.442 147.974,94.442C151.719,94.442 156.177,96.804 156.177,101.251L156.177,126.605L161.856,126.605L161.856,100.844C161.856,94.723 156.742,91.071 148.167,91.07ZM242.328,116.856C242.328,119.551 241.331,124.058 232.711,124.058C228.971,124.058 224.509,121.304 224.509,116.856L224.509,101.285C224.509,96.838 228.971,94.442 232.711,94.442C241.331,94.442 242.328,98.556 242.328,101.251L242.328,116.856ZM23.499,116.871C23.499,121.319 19.037,124.004 15.291,124.004C6.671,124.004 5.675,119.566 5.675,116.871L5.675,101.3C5.675,98.605 6.671,94.56 15.291,94.56C19.037,94.56 23.499,96.853 23.499,101.3L23.499,116.871ZM83.412,106.734L66.707,106.705C66.251,106.705 65.877,106.332 65.877,105.875L65.877,101.32C65.882,97.623 69.024,94.325 75.062,94.325C81.1,94.325 84.242,97.623 84.242,101.32L84.242,105.9C84.242,106.361 83.869,106.734 83.412,106.734ZM278.59,106.734L261.885,106.705C261.428,106.705 261.055,106.332 261.055,105.875L261.055,101.32C261.06,97.623 264.202,94.325 270.24,94.325C276.278,94.325 279.42,97.623 279.42,101.32L279.42,105.9C279.42,106.361 279.047,106.734 278.59,106.734Z" style="fill:rgb(186,12,47);fill-rule:nonzero;"/>
    <path id="b_logo__icon" d="M173.343,40.857C172.563,35.516 169.274,32.026 169.239,31.991L169.171,31.923L169.234,31.849C169.259,31.82 171.782,28.958 172.838,24.726C173.888,20.48 173.392,14.692 171.679,11.266C169.691,7.304 166.554,4.079 163.084,2.41C158.43,0.177 153.3,0.044 153.246,0.044C153.246,0.044 152.461,0.025 151.263,0L132.643,0L132.643,27.455L146.531,27.446C146.531,27.446 147.93,27.47 149.52,27.691C151.248,27.937 153.02,28.364 154.385,28.874C155.897,29.429 157.114,30.195 157.571,30.494C158.626,31.196 159.117,31.721 159.137,31.746L159.201,31.815L159.137,31.883C159.107,31.918 158.4,32.728 157.149,33.562C156.324,34.112 155.244,34.637 154.027,35.074C153.305,35.334 152.196,35.683 150.993,35.86C149.682,36.051 148.499,36.08 147.91,36.08L132.639,36.08L132.639,63.722L150.055,63.722C152.333,63.698 154.611,63.58 155.848,63.428C157.311,63.251 158.97,62.888 160.408,62.431C162.229,61.852 168.415,59.476 171.473,53.262C172.793,50.581 174.192,46.747 173.338,40.857L173.343,40.857ZM163.26,50.64C161.974,52.53 159.839,54.16 157.551,54.999C155.023,55.927 151.695,56.001 150.733,56.001L140.714,56.001L140.714,43.645L140.822,43.645C140.822,43.645 141.931,43.699 143.556,43.699C145.024,43.699 146.452,43.66 147.807,43.581L148.023,43.571C149.02,43.517 150.05,43.463 151.047,43.351C152.284,43.208 153.541,42.977 154.891,42.644C157.517,41.986 159.407,40.818 160.786,39.968C162.632,38.825 163.889,37.872 163.898,37.862L163.997,37.789L164.056,37.892C164.056,37.892 165.17,39.9 165.317,42.732C165.43,45.005 164.836,48.333 163.26,50.645L163.26,50.64ZM154.812,20.995C153.462,20.657 152.21,20.426 150.968,20.284C150.05,20.185 149.098,20.126 148.175,20.077L147.724,20.053C146.393,19.979 144.98,19.945 143.526,19.945C141.872,19.945 140.753,19.994 140.743,19.994L140.635,19.994L140.635,7.462L150.458,7.462C150.458,7.462 151.94,7.466 153.722,7.727C155.053,7.918 156.383,8.242 157.473,8.64C159.755,9.479 161.891,11.109 163.182,12.999C163.678,13.72 164.041,14.373 164.291,15.002C164.993,16.769 165.342,18.919 165.243,20.907C165.096,23.739 163.992,25.728 163.982,25.747L163.918,25.865L163.82,25.777C163.82,25.777 162.553,24.653 160.708,23.509C159.397,22.699 157.546,21.683 154.817,20.995L154.812,20.995Z" style="fill:rgb(186,12,47);fill-rule:nonzero;"/>
</svg>
