<?xml version="1.0" encoding="UTF-8" standalone="no"?>
<!DOCTYPE svg PUBLIC "-//W3C//DTD SVG 1.1//EN" "http://www.w3.org/Graphics/SVG/1.1/DTD/svg11.dtd">
<svg width="100%" height="100%" viewBox="0 0 202 91" version="1.1" xmlns="http://www.w3.org/2000/svg" xmlns:xlink="http://www.w3.org/1999/xlink" xml:space="preserve" xmlns:serif="http://www.serif.com/" style="fill-rule:evenodd;clip-rule:evenodd;stroke-linejoin:round;stroke-miterlimit:2;">
    <g>
        <g transform="matrix(1.00728,0,0,1,-1.46661,0)">
            <rect x="1.456" y="0" width="199.881" height="90.664" style="fill:rgb(187,23,29);"/>
        </g>
        <path d="M199.881,86.516L199.881,81.038C199.881,79.756 198.83,79.056 197.548,79.056L164.044,79.056L157.474,88.612L197.548,88.612C198.83,88.612 199.881,87.68 199.881,86.516M196.498,16.618C197.667,14.867 198.368,11.84 198.368,9.745C198.368,3.335 194.985,2.053 188.462,2.053L146.987,2.053C145.711,2.053 144.66,2.872 144.66,4.035L144.66,9.513C144.66,10.789 145.823,11.489 146.987,11.489L185.667,11.489C186.367,11.489 186.83,11.839 186.83,12.302C186.83,12.539 186.717,12.89 186.48,13.24L144.773,73.933C143.61,75.678 143.028,78.711 143.028,80.687C143.028,85.073 144.156,87.222 147.473,88.1L196.498,16.618ZM132.178,87.098C132.178,86.748 132.059,86.398 131.828,86.048L105.784,42.537C103.042,43.071 99.873,43.297 96.294,43.297C93.617,43.297 88.608,43.178 83.48,43.066L83.48,11.139C86.281,10.789 92.685,10.789 96.294,10.789C110.859,10.789 118.432,14.635 118.432,26.286L118.432,27.099C118.432,32.815 116.818,36.673 113.719,39.189L118.544,47.243C124.841,43.243 128.913,36.595 128.913,27.099L128.913,26.286C128.913,7.412 114.698,1.239 96.293,1.239C89.539,1.239 80.802,1.589 75.793,2.171C73.692,2.402 72.998,3.103 72.998,4.735L72.998,86.285C72.998,87.561 73.93,88.612 75.093,88.612L81.384,88.612C82.666,88.612 83.479,87.449 83.479,86.285L83.479,52.033C89.652,52.264 92.453,52.383 96.293,52.383L99.326,52.383L120.176,87.098C121.108,88.612 121.808,88.612 123.203,88.612L130.664,88.612C131.597,88.612 132.178,87.911 132.178,87.098M58.309,64.728L58.309,62.746C58.309,57.535 56.629,52.983 53.656,49.528C51.869,50.739 49.923,51.807 47.798,52.727C46.914,53.113 46.017,53.457 45.127,53.772C46.991,56.324 47.709,59.476 47.709,62.746L47.709,64.728C47.709,77.311 38.735,80.456 24.289,80.456C20.212,80.456 16.021,80.106 12.175,79.993L12.175,47.955C12.175,47.955 26.906,48.014 28.194,47.955C29.761,47.955 31.185,47.902 32.521,47.801L33.364,47.724C44.516,46.709 50.825,42.281 54.517,36.886C54.529,36.862 54.541,36.85 54.553,36.833C54.577,36.797 54.6,36.762 54.624,36.732C55.259,35.806 55.728,34.963 56.06,34.269L56.078,34.245C57.253,31.681 57.841,28.779 57.841,25.586L57.841,23.722L57.829,23.562C57.704,6.095 42.165,1.24 23.707,1.24L23.701,1.24C16.134,1.24 9.029,1.703 5.183,2.172C2.738,2.403 1.456,3.804 1.456,6.48L1.456,84.071C1.456,86.979 2.619,88.03 5.302,88.38C9.724,89.074 16.603,89.425 24.289,89.425C42.462,89.425 58.309,84.303 58.309,64.728M12.175,39.451L12.175,10.558C15.439,10.439 19.748,10.208 23.707,10.208C37.922,10.208 47.24,12.54 47.24,23.722L47.24,25.586C47.24,32.928 43.625,39.451 30.117,39.451L12.175,39.451Z" style="fill:white;fill-rule:nonzero;"/>
    </g>
</svg>
