<?xml version="1.0" encoding="UTF-8"?>
<svg width="600" height="600" version="1.1" xmlns="http://www.w3.org/2000/svg">
 <path d="m0 0v600h600v-600z" fill="#0033a0"/>
 <path d="m263.37 58.512c81.05-0.03662 336.63 1.9744 336.63 1.9744l-6e-3 8.941-291.49-1.7926v0.25581c31.448 8.8244 59.731 25.603 82.364 48.191l-0.027 0.10089c-4.8831-1.7558-13.04-3.657-19.139-4.5074-31.501-26.711-72.506-42.934-116.74-42.934-99.525 0-180.96 81.152-180.96 180.91 0 99.746 81.149 180.92 180.9 180.92s180.92-81.17 180.92-180.92c0-40.751-16.221-81.48-37.912-108.85 3.7772 0.87783 11.786 4.133 16.926 7.0044 14.933 19.807 28.796 54.555 40.528 110.57 11.906 56.92 76.124 341.63 76.124 341.63h-10.498l-76.005-345.06-0.32968 0.0361c0.91501 52.847-23.309 88.72-30.926 101.18-6.6393 10.845-22.514 31.769-53.093 64.223-39.874 42.356-168.9 179.63-168.9 179.63h-13.048l178.77-190.22-0.25581-0.23781c-28.452 20.073-64.544 30.974-103.48 30.974-72.137 0-135.71-42.809-163.28-96.075l-0.28464 0.18195 37.538 126.66h-10.159s-18.619-64.185-34.53-120.12c-12.025-42.344-19.44-73.709-19.34-101.55 0.33206-95.734 75.625-183.54 175.75-190.01 2.7441-0.18292 11.257-1.0607 23.959-1.0881zm291.06 47.338s-11.146 116.3-17.639 174.1c-8.4499 75.348-19.295 104.81-40.657 137.93l-3.0554-13.405c17.429-28.796 22.167-54.208 24.27-67.294 6.2547-38.685-2.6884-91.517-29.646-132.74-30.208-46.207-84.225-80.179-150.53-80.179-54.472 0-101.78 23.939-134.82 61.286l-8.0114-6.3467c34.958-39.669 85.796-64.971 142.83-64.971 59.827 0 113.08 26.867 149.38 71.382 20.913 25.643 37.83 66.198 40.318 100.17h0.31886l17.429-179.93 9.8077-5e-3zm-404.21 99.267c9.6656 0 20.756 2.9723 26.929 5.6333-1.2894 2.8531-2.3587 6.6302-2.8068 8.9986l-0.67557 0.20898c-4.7734-5.2764-12.466-9.8667-23.842-9.8667-14.439 0-31.055 11.696-31.055 35.005 0 22.697 16.938 34.759 32.071 34.759 13.598 0 20.108-6.3377 25.951-11.276l0.45759 0.43957-1.6628 8.8239c-2.6793 2.0392-11.97 7.8186-25.961 7.8186-25.312 0-42.56-15.967-42.56-40.273 0-24.196 18.29-40.271 43.154-40.271zm172.38 0.67557 3.6841 0.0361c4.7733 5.1847 51.712 53.761 55.81 58.114 0.10972-4.1608 0.10989-11.514 0.10989-19.918 0-11.175-0.85014-28.238-1.3439-37.455 1.1522 0.21032 2.8332 0.41075 4.7992 0.41075 1.9934 0 3.6122-0.18214 4.929-0.41075-0.91445 11.888-1.18 31.201-1.18 49.344 0 14.165 0.20277 22.214 0.37651 29.374l-3.6859-0.0469c-4.4984-6.0997-51.711-55.334-55.798-59.686-0.10975 4.1516-0.12971 12.811-0.12971 21.224 0 11.184 0.86093 28.238 1.3547 37.447-1.1521-0.19203-2.8351-0.40174-4.792-0.40174-1.9935 0-3.6212 0.18228-4.938 0.40174 0.92358-11.888 1.18-31.183 1.18-49.344 0-14.164-0.20096-21.927-0.37471-29.087zm-70.389 0.80889c4.2797 0.33834 9.6924 0.56567 13.972 0.56567 4.2704 0 8.5404-0.56567 12.819-0.56567 12.71 0 24.353 3.7675 24.353 17.914 0 14.979-14.915 20.363-23.474 21.489 5.5233 6.8584 25.266 30.917 31.795 38.224-2.2587-0.32921-6.0178-0.36572-7.0511-0.36572-1.0242 0-4.9188 0.0365-7.0403 0.36572-4.4533-6.767-18.691-28.11-28.384-38.077h-5.7144l-2e-3 -2e-3v8.9446c0 9.6748 0.44894 19.469 0.90616 29.134-1.9203-0.3292-5.3867-0.36571-6.1-0.36571-0.69498 0-4.1507 0.0365-6.0802 0.36571 0.45723-9.6656 0.90437-19.459 0.90437-29.134v-19.351c0-9.6748-0.44714-19.459-0.90437-29.144zm-62.297 4e-3c6.749 0.33835 17.183 0.56568 23.931 0.56568s19.331-0.29134 23.236-0.56568c-0.1646 1.07-0.26663 2.3044-0.26663 3.8498 0 1.5362 0.13861 3.1088 0.26663 3.8769-7.4159-0.55777-20.648-1.4628-35.27-1.4628-0.11888 4.8277-0.33869 25.349-0.33869 28.165 13.268 0 21.773-0.55913 28.412-1.1169-0.21947 1.1156-0.33869 3.1285-0.33869 4.2624 0 1.1156 0.11922 2.7882 0.33869 3.9129-7.7729-0.78637-25.129-1.0142-28.412-1.0142-0.21947 3.767-0.0363 28.11 0.10089 30.157 8.2295-0.10967 29.308-0.7497 36.98-1.4539-0.12803 0.85044-0.27383 2.6066-0.27383 4.3074 0 1.7191 0.10923 2.9639 0.27383 4.1435-4.0419-0.21032-9.6555-0.36601-14.978-0.4666-3.0725-0.0548-6.0448-0.0826-8.4041-0.0919-0.32918-9e-3 -0.66704-9e-3 -0.99626-9e-3 -6.8588 0-17.393 0.22733-24.261 0.56568 0.45723-9.7846 0.90437-19.567 0.90437-29.242v-19.351c0-9.6748-0.44714-19.469-0.90437-29.034zm85.147 4.7146c-5.1666 0-8.5402 0.33721-10.908 0.55668-0.33834 8.2209-0.66836 15.766-0.66836 23.868v6.19c1.1156 0.14632 6.3838 0.11918 7.5268 0.10089 9.3004-0.1829 21.498-3.1368 21.498-15.976 0-11.193-9.7938-14.74-17.448-14.74zm-128.74 103.32h10.214c0.8781 25.852 7.1688 59.613 29.28 94.599-4.4357-1.2436-12.902-4.9486-16.506-7.8565-15.299-28.978-22.139-58.551-22.989-86.743zm331.01 112.3 2.7528 12.445c-32.256 36.386-82.947 64.049-142.18 64.049-13.406 0-27.407-1.372-43.217-5.0298l8.2564-8.7788c10.004 2.0301 22.002 3.4193 34.375 3.4193 57.589 0.0277 107.72-26.583 140.02-66.105zm-285.56 9.1535c4.8646 2.0758 12.948 4.3706 19.413 5.3217 14.375 14.128 37.557 31.438 69.481 42.22l-7.7177 8.1933c-29.428-11.12-59.395-30.954-81.177-55.736z" fill="#fff"/>
</svg>
