<?xml version="1.0" encoding="UTF-8" standalone="no"?> <svg xmlns:dc="http://purl.org/dc/elements/1.1/" xmlns:cc="http://creativecommons.org/ns#" xmlns:rdf="http://www.w3.org/1999/02/22-rdf-syntax-ns#" xmlns:svg="http://www.w3.org/2000/svg" xmlns="http://www.w3.org/2000/svg" xmlns:sodipodi="http://sodipodi.sourceforge.net/DTD/sodipodi-0.dtd" xmlns:inkscape="http://www.inkscape.org/namespaces/inkscape" id="svg2" width="400" height="160" xml:space="preserve" version="1.0"><metadata id="metadata7"></metadata><defs id="defs5"></defs><g id="g11" transform="matrix(1.25,0,0,-1.25,-574.00253,602.94509)"><text transform="matrix(1,0,0,-1,59.7599,63.9)" id="text29"><tspan style="font-size:8px;font-variant:normal;font-weight:500;writing-mode:lr-tb;fill:#ffffff;fill-opacity:1;fill-rule:nonzero;stroke:none;font-family:UniversCondensed;-inkscape-font-specification:UniversCondensed-Medium" x="0 3.688 7.3759999 11.064 14.752 17.010401 18.7784 22.0264 24.3864 27.634399 30.586399 33.8344 36.7864 39.0448 42.876801 45.972801 49.068802 52.316799 55.5648 58.812801 60.292801 63.540798 66.788803 68.268799 71.364799 74.316803 76.575203 79.671204 81.151199 86.015198 87.495201 89.855202 92.951202 96.199203 97.967201 100.2256 104.2096 107.4576 110.7056 113.9536 117.2016 118.6816 121.9296 124.1376 127.2336 129.0016 131.25999 133.028 136.276 139.524 141.004 144.252 146.02 148.2784 150.0464 153.2944 155.6544 158.9024 161.8544 165.1024 168.0544 170.31281 173.56081 176.6568 178.1368 179.61681 182.7128 185.80881 188.9048 191.8568 194.1152 196.4752 199.72321 202.8192 205.07761 206.5576 209.8056 212.1656 215.4136 217.6216 222.4856 225.7336 228.0936 229.57359 232.82159 236.0696 238.328 239.808 243.056 245.31441 247.67439 250.92239 252.4024 255.3544 257.61279 260.86081 264.1088 267.35681 268.83679 270.3168 273.41281 276.6608 279.02081 280.50079 283.74881 286.9968 289.25519 290.7352 293.68719 295.94559 299.1936 302.28961 305.38559 308.63361 310.84161 314.0896 316.44958 319.54559 321.80399 325.052 328.004 330.26239 333.51041 335.87039 338.12881 339.6088 341.96881 344.8616 347.12 350.36801 353.616 356.86401 358.34399 359.82401 362.92001 366.168 368.52802 370.008 373.25601 376.504 378.76239 382.01041 385.25839 387.61841 390.71439 392.48239 394.74081 397.69281 400.9408 404.0368 407.28479 409.54321 411.02319 414.27121 416.6312 419.87921 422.08719 426.9512 430.19919 432.5592 434.03922 437.2872 440.53519 442.79361 444.27359 447.22559 449.48401 452.436 455.68399 458.93201 460.41199 463.508 466.604 468.96399 471.22241 473.5824 476.83041 479.08881 482.18481 485.4328 488.68079 491.9288 495.17679" y="0" id="tspan31">2007 Infosys Technologies Limited, Bangalore, India. Infosys believes the information in this publication is accurate as of its publication date; such information is subject to change</tspan><tspan style="font-size:8px;font-variant:normal;font-weight:500;writing-mode:lr-tb;fill:#ffffff;fill-opacity:1;fill-rule:nonzero;stroke:none;font-family:UniversCondensed;-inkscape-font-specification:UniversCondensed-Medium" x="-5.7600002 -0.59439999 0.88319999 3.2407999 6.4864001 9.7320004 12.9776 15.3352 17.190399 20.436001 23.681601 26.0392 27.5168 30.610399 33.703999 35.469601 37.324799 39.090401 42.335999 44.6936 47.939201 50.888802 54.134399 57.084 58.939201 62.184799 65.278397 68.524002 71.7696 75.015198 80.180801 81.658401 84.751999 87.997597 91.243202 94.3368 97.2864 99.141602 101.4992 104.7448 107.8384 109.6936 112.9392 115.1448 118.3904 121.636 123.8416 125.3192 128.4128 130.7704 134.01601 136.2216 139.46719 141.3224 143.528 145.0056 148.25121 151.4968 153.8544 156.804 158.65919 161.9048 164.26241 166.1176 168.4752 171.72079 174.81441 176.6696 179.02721 181.2328 184.47839 187.724 190.8176 195.6792 198.9248 201.1304 204.37601 207.32561 209.1808 212.42641 215.672 218.9176 220.7728 224.0184 226.224 229.4696 232.71519 235.9608 239.0544 241.412 243.2672 246.5128 249.75841 254.62 257.71359 260.66321 262.5184 265.76401 268.12161 269.97681 273.22241 275.57999 278.82559 281.91919 284.12479 285.98001 289.07361 292.31921 297.18079 300.42639 303.672 306.9176 308.3952 311.4888 314.43839 316.29361 321.15521 324.24881 327.49438 329.85199 331.32959 334.5752 337.8208 340.9144 344.16 346.0152 347.4928 350.68719 352.54239 354.89999 358.1456 359.6232 362.57281 364.42801 367.67361 370.91919 374.01279 377.25839 382.12 385.21359 388.4592 390.8168" y="9.1800003" id="tspan33">without notice. Infosys acknowledges the proprietary rights of the trademarks and product names of other companies mentioned in this document.</tspan><tspan style="font-size:8px;font-variant:normal;font-weight:500;writing-mode:lr-tb;fill:#ffffff;fill-opacity:1;fill-rule:nonzero;stroke:none;font-family:UniversCondensed;-inkscape-font-specification:UniversCondensed-Medium" x="-5.7600002" y="1.08" id="tspan35">©</tspan></text> <path d="M 54.36,74.7 L 558,74.7" style="fill:none;stroke:#ffffff;stroke-width:0.23999999;stroke-linecap:butt;stroke-linejoin:miter;stroke-miterlimit:10;stroke-dasharray:none;stroke-opacity:1" id="path37"></path><g id="g2552" transform="matrix(2.5650071,0,0,2.5650071,-1722.9173,15.11566)"><path id="path161" style="fill:#3781c2;fill-opacity:1;fill-rule:evenodd;stroke:none" d="M 851.813,176.314 L 851.812,176.373 L 851.812,181.096 L 856.525,181.096 L 856.525,146.455 L 856.527,146.347 L 856.527,141.673 L 851.812,141.673 L 851.812,146.396 L 851.813,146.455 L 851.813,176.314"></path><path id="path163" style="fill:#3781c2;fill-opacity:1;fill-rule:evenodd;stroke:none" d="M 899.736,156.03 C 899.857,148.865 904.29,143.135 909.638,143.231 C 914.985,143.327 919.221,149.213 919.1,156.378 C 918.978,163.544 914.545,169.274 909.197,169.177 C 903.85,169.081 899.614,163.195 899.736,156.03 z M 938.759,164.693 C 938.882,164.42 938.59,165.101 938.59,165.101 L 938.759,164.693 z M 941.971,135.03 C 942.187,135.4 942.488,135.966 942.846,136.673 L 941.971,135.03 z M 942.248,167.165 C 942.305,167.006 942.371,166.84 942.445,166.665 L 944.032,162.756 L 942.248,167.165 z M 922.5,147.487 C 925.413,144.827 928.036,143.452 931.39,143.452 C 934.823,143.426 937.875,145.115 937.875,148.366 C 937.875,151.079 935.484,152.666 931.212,154.483 C 927.592,156.059 924.898,157.164 923.49,159.445 C 923.662,158.454 923.752,157.43 923.752,156.382 C 923.752,147.583 917.408,140.449 909.582,140.449 C 901.756,140.449 895.412,147.583 895.412,156.382 C 895.412,161.687 897.718,166.386 901.263,169.282 L 891.674,169.282 L 891.674,146.455 L 891.675,146.364 L 891.675,141.673 L 887.416,141.673 L 887.416,146.211 C 887.419,146.291 887.42,146.372 887.42,146.455 L 887.42,169.282 L 883.665,169.282 L 883.665,172.155 L 887.475,172.155 C 887.967,177.951 891.536,181.229 896.477,181.229 C 899.681,181.229 901.44,180.893 902.456,180.42 L 902.456,176.491 C 902.44,176.198 902.44,176.019 902.44,176.019 C 902.396,176.024 902.291,176.026 902.291,176.026 C 900.749,177.457 899.228,178.522 895.675,178.518 C 892.845,178.518 890.973,176.205 891.627,172.155 L 907.567,172.155 C 908.226,172.26 908.898,172.315 909.582,172.315 C 915.259,172.315 920.157,168.561 922.418,163.139 C 922.397,163.44 922.387,163.754 922.387,164.082 C 922.387,169.739 927.83,172.145 933.484,172.133 C 933.7,172.134 933.912,172.133 934.12,172.128 C 936.11,172.16 938.945,171.507 940.676,171.049 L 944.032,162.756 L 948.828,150.988 L 949.391,149.098 L 950.018,150.988 L 956.083,166.093 C 957.202,170.252 961.631,172.052 966.523,172.042 C 968.955,172.053 970.751,171.758 972.905,170.996 L 972.905,166.428 C 970.253,168.367 968.354,169.494 965.345,169.494 C 962.7,169.494 959.521,168.316 959.521,164.4 C 959.47,161.457 961.225,160.919 966.375,158.348 C 970.608,156.499 974.513,154.458 974.536,149.731 C 974.536,141.85 966.818,140.485 963.061,140.473 C 959.707,140.473 956.633,141.306 954.923,142.737 L 954.923,147.94 L 955.198,147.711 C 958.249,144.845 960.945,143.36 964.429,143.36 C 967.863,143.334 970.914,145.024 970.914,148.275 C 970.914,150.988 968.523,152.575 964.251,154.392 C 960.168,156.17 957.489,157.348 956.394,160.293 C 954.729,156.208 946.984,137.233 945.161,133.177 L 940.985,133.177 L 942.875,136.727 C 943.922,138.801 945.445,142.055 946.798,145.168 L 938.759,164.693 C 938.705,164.812 938.573,165.112 938.304,165.727 C 937.687,167.141 937.113,168.447 935.377,169.105 C 934.447,169.42 933.457,169.585 932.306,169.585 C 929.661,169.585 926.278,168.407 926.278,164.491 C 926.227,161.548 928.185,161.01 933.336,158.44 C 937.569,156.59 941.474,154.549 941.497,149.822 C 941.497,141.941 933.778,140.577 930.021,140.564 C 927.039,140.564 924.277,141.223 922.5,142.375 L 922.5,147.487"></path><path id="path165" style="fill:#3781c2;fill-opacity:1;fill-rule:evenodd;stroke:none" d="M 865.32,171.861 L 865.372,168.413 L 865.369,168.181 L 865.415,168.182 C 865.47,168.326 865.544,168.448 865.614,168.539 C 867.345,170.406 869.527,172.261 874.713,172.261 C 879.677,172.261 882.89,168.018 883.019,165.347 L 883.024,146.455 L 883.024,146.361 L 883.024,141.673 L 878.77,141.673 L 878.77,147.306 L 878.769,163.389 C 878.769,166.719 875.864,169.127 872.308,169.127 C 869.352,169.127 865.558,166.451 865.432,163.742 L 865.432,146.45 L 865.434,146.323 L 865.434,141.669 L 861.178,141.669 L 861.178,167.891 L 861.179,171.861 L 865.32,171.861"></path></g></g></svg> 